{
  "accessors": [
    {
      "bufferView": 2,
      "componentType": 5126,
      "count": 237,
      "max": [
        0.5410111546516418,
        0.7112877368927002,
        0.5990874171257019
      ],
      "min": [
        -0.5958877205848694,
        -0.5433569550514221,
        -0.6496483683586121
      ],
      "type": "VEC3"
    },
    {
      "bufferView": 2,
      "byteOffset": 2844,
      "componentType": 5126,
      "count": 237,
      "max": [
        0.9948906302452087,
        0.9369601607322693,
        0.9538950324058533
      ],
      "min": [
        -0.9207828640937805,
        -0.9822676181793213,
        -0.965563952922821
      ],
      "type": "VEC3"
    },
    {
      "bufferView": 3,
      "componentType": 5126,
      "count": 237,
      "max": [
        0.7504932880401611,
        0.9742792844772339,
        0.9997550845146179,
        1.0
      ],
      "min": [
        -0.9779651165008545,
        -0.9810887575149536,
        -0.8799871206283569,
        1.0
      ],
      "type": "VEC4"
    },
    {
      "bufferView": 1,
      "componentType": 5126,
      "count": 237,
      "max": [
        1.0012515783309937,
        0.988927960395813
      ],
      "min": [
        0.007323762401938438,
        0.020616520196199417
      ],
      "type": "VEC2"
    },
    {
      "bufferView": 1,
      "byteOffset": 1896,
      "componentType": 5126,
      "count": 237,
      "max": [
        1.0012515783309937,
        0.988927960395813
      ],
      "min": [
        0.007323762401938438,
        0.020616520196199417
      ],
      "type": "VEC2"
    },
    {
      "bufferView": 1,
      "byteOffset": 3792,
      "componentType": 5126,
      "count": 237,
      "max": [
        1.0012515783309937,
        0.988927960395813
      ],
      "min": [
        0.007323762401938438,
        0.020616520196199417
      ],
      "type": "VEC2"
    },
    {
      "bufferView": 0,
      "componentType": 5125,
      "count": 588,
      "type": "SCALAR"
    }
  ],
  "asset": {
    "extras": {
      "author": "DubbleSnup (https://sketchfab.com/dubblesnup)",
      "license": "CC-BY-4.0 (http://creativecommons.org/licenses/by/4.0/)",
      "source": "https://sketchfab.com/3d-models/stylized-rock-f0309cd2e4a347c3996cd7d887cd2d4a",
      "title": "Stylized Rock"
    },
    "generator": "Sketchfab-13.28.0",
    "version": "2.0"
  },
  "bufferViews": [
    {
      "buffer": 0,
      "byteLength": 2352,
      "name": "floatBufferViews",
      "target": 34963
    },
    {
      "buffer": 0,
      "byteLength": 5688,
      "byteOffset": 2352,
      "byteStride": 8,
      "name": "floatBufferViews",
      "target": 34962
    },
    {
      "buffer": 0,
      "byteLength": 5688,
      "byteOffset": 8040,
      "byteStride": 12,
      "name": "floatBufferViews",
      "target": 34962
    },
    {
      "buffer": 0,
      "byteLength": 3792,
      "byteOffset": 13728,
      "byteStride": 16,
      "name": "floatBufferViews",
      "target": 34962
    }
  ],
  "buffers": [
    {
      "byteLength": 17520,
      "uri": "scene.bin"
    }
  ],
  "images": [
    {
      "uri": "textures/Material.001_baseColor.png"
    },
    {
      "uri": "textures/Material.001_metallicRoughness.png"
    },
    {
      "uri": "textures/Material.001_normal.png"
    }
  ],
  "materials": [
    {
      "doubleSided": true,
      "name": "Material.001",
      "normalTexture": {
        "index": 2
      },
      "pbrMetallicRoughness": {
        "baseColorTexture": {
          "index": 0
        },
        "metallicFactor": 0.0,
        "metallicRoughnessTexture": {
          "index": 1
        }
      }
    }
  ],
  "meshes": [
    {
      "name": "lp_Material.001_0",
      "primitives": [
        {
          "attributes": {
            "NORMAL": 1,
            "POSITION": 0,
            "TANGENT": 2,
            "TEXCOORD_0": 3,
            "TEXCOORD_1": 4,
            "TEXCOORD_2": 5
          },
          "indices": 6,
          "material": 0,
          "mode": 4
        }
      ]
    }
  ],
  "nodes": [
    {
      "children": [
        1
      ],
      "matrix": [
        1.0,
        0.0,
        0.0,
        0.0,
        0.0,
        2.220446049250313e-16,
        -1.0,
        0.0,
        0.0,
        1.0,
        2.220446049250313e-16,
        0.0,
        0.0,
        0.0,
        0.0,
        1.0
      ],
      "name": "Sketchfab_model"
    },
    {
      "children": [
        2
      ],
      "matrix": [
        0.009999999776482582,
        0.0,
        0.0,
        0.0,
        0.0,
        0.0,
        0.009999999776482582,
        0.0,
        0.0,
        -0.009999999776482582,
        0.0,
        0.0,
        0.0,
        0.0,
        0.0,
        1.0
      ],
      "name": "ab9d62b61a9a417a9323bc317f56a6ce.fbx"
    },
    {
      "children": [
        3
      ],
      "name": "RootNode"
    },
    {
      "children": [
        4
      ],
      "matrix": [
        100.0,
        0.0,
        0.0,
        0.0,
        0.0,
        -1.629206793918314e-05,
        -99.99999999999868,
        0.0,
        0.0,
        99.99999999999868,
        -1.629206793918314e-05,
        0.0,
        14.103948593139648,
        -4.259455680847168,
        14.286908149719238,
        1.0
      ],
      "name": "lp"
    },
    {
      "mesh": 0,
      "name": "lp_Material.001_0"
    }
  ],
  "samplers": [
    {
      "magFilter": 9729,
      "minFilter": 9987,
      "wrapS": 10497,
      "wrapT": 10497
    }
  ],
  "scene": 0,
  "scenes": [
    {
      "name": "Sketchfab_Scene",
      "nodes": [
        0
      ]
    }
  ],
  "textures": [
    {
      "sampler": 0,
      "source": 0
    },
    {
      "sampler": 0,
      "source": 1
    },
    {
      "sampler": 0,
      "source": 2
    }
  ]
}
