{
  "accessors": [
    {
      "bufferView": 2,
      "componentType": 5126,
      "count": 968,
      "max": [
        597.594970703125,
        638.6923828125,
        821.2129516601563
      ],
      "min": [
        -597.26611328125,
        -614.8289794921875,
        -213.529296875
      ],
      "type": "VEC3"
    },
    {
      "bufferView": 2,
      "byteOffset": 11616,
      "componentType": 5126,
      "count": 968,
      "max": [
        0.9995090961456299,
        0.9997716546058655,
        1.0
      ],
      "min": [
        -0.9996576905250549,
        -0.9997606873512268,
        -1.0
      ],
      "type": "VEC3"
    },
    {
      "bufferView": 3,
      "componentType": 5126,
      "count": 968,
      "max": [
        1.0,
        1.0,
        0.9733926653862,
        1.0
      ],
      "min": [
        -0.9999932646751404,
        -0.999337375164032,
        -0.9990252256393433,
        1.0
      ],
      "type": "VEC4"
    },
    {
      "bufferView": 1,
      "componentType": 5126,
      "count": 968,
      "max": [
        0.9929834604263306,
        0.999500036239624
      ],
      "min": [
        0.0005000000237487257,
        0.0005000000237487257
      ],
      "type": "VEC2"
    },
    {
      "bufferView": 0,
      "componentType": 5125,
      "count": 3948,
      "type": "SCALAR"
    }
  ],
  "asset": {
    "extras": {
      "author": "glezova (https://sketchfab.com/glezova)",
      "license": "CC-BY-4.0 (http://creativecommons.org/licenses/by/4.0/)",
      "source": "https://sketchfab.com/3d-models/balloon-a6615ac74bba49d4bb77092de480ba3b",
      "title": "Balloon"
    },
    "generator": "Sketchfab-12.67.0",
    "version": "2.0"
  },
  "bufferViews": [
    {
      "buffer": 0,
      "byteLength": 15792,
      "name": "floatBufferViews",
      "target": 34963
    },
    {
      "buffer": 0,
      "byteLength": 7744,
      "byteOffset": 15792,
      "byteStride": 8,
      "name": "floatBufferViews",
      "target": 34962
    },
    {
      "buffer": 0,
      "byteLength": 23232,
      "byteOffset": 23536,
      "byteStride": 12,
      "name": "floatBufferViews",
      "target": 34962
    },
    {
      "buffer": 0,
      "byteLength": 15488,
      "byteOffset": 46768,
      "byteStride": 16,
      "name": "floatBufferViews",
      "target": 34962
    }
  ],
  "buffers": [
    {
      "byteLength": 62256,
      "uri": "scene.bin"
    }
  ],
  "images": [
    {
      "uri": "textures/Balloon_baseColor.png"
    },
    {
      "uri": "textures/Balloon_metallicRoughness.png"
    },
    {
      "uri": "textures/Balloon_normal.png"
    }
  ],
  "materials": [
    {
      "name": "Balloon",
      "normalTexture": {
        "index": 2
      },
      "occlusionTexture": {
        "index": 1,
        "strength": 0.5200076219512195
      },
      "pbrMetallicRoughness": {
        "baseColorTexture": {
          "index": 0
        },
        "metallicFactor": 0.0,
        "metallicRoughnessTexture": {
          "index": 1
        },
        "roughnessFactor": 0.8929713596497552
      }
    }
  ],
  "meshes": [
    {
      "name": "SM_Balloon_Balloon_0",
      "primitives": [
        {
          "attributes": {
            "NORMAL": 1,
            "POSITION": 0,
            "TANGENT": 2,
            "TEXCOORD_0": 3
          },
          "indices": 4,
          "material": 0,
          "mode": 4
        }
      ]
    }
  ],
  "nodes": [
    {
      "children": [
        1
      ],
      "matrix": [
        1.0,
        0.0,
        0.0,
        0.0,
        0.0,
        2.220446049250313e-16,
        -1.0,
        0.0,
        0.0,
        1.0,
        2.220446049250313e-16,
        0.0,
        0.0,
        -1.262177448353619e-29,
        5.684341886080802e-14,
        1.0
      ],
      "name": "Sketchfab_model"
    },
    {
      "children": [
        2
      ],
      "matrix": [
        1.0,
        0.0,
        0.0,
        0.0,
        0.0,
        0.0,
        1.0,
        0.0,
        0.0,
        -1.0,
        0.0,
        0.0,
        0.0,
        0.0,
        0.0,
        1.0
      ],
      "name": "8b0550f7eb134b4a81c26a0a88b35917.fbx"
    },
    {
      "children": [
        3
      ],
      "name": "RootNode"
    },
    {
      "children": [
        4
      ],
      "matrix": [
        1.0,
        0.0,
        0.0,
        0.0,
        0.0,
        2.220446049250313e-16,
        -1.0,
        0.0,
        0.0,
        1.4217147827148438,
        3.156840972439942e-16,
        0.0,
        0.0,
        0.0,
        0.0,
        1.0
      ],
      "name": "SM_Balloon"
    },
    {
      "mesh": 0,
      "name": "SM_Balloon_Balloon_0"
    }
  ],
  "samplers": [
    {
      "magFilter": 9729,
      "minFilter": 9987,
      "wrapS": 10497,
      "wrapT": 10497
    }
  ],
  "scene": 0,
  "scenes": [
    {
      "name": "Sketchfab_Scene",
      "nodes": [
        0
      ]
    }
  ],
  "textures": [
    {
      "sampler": 0,
      "source": 0
    },
    {
      "sampler": 0,
      "source": 1
    },
    {
      "sampler": 0,
      "source": 2
    }
  ]
}
